<?xml version="1.0" standalone="no"?><svg xmlns="http://www.w3.org/2000/svg" viewBox="0 0 1440 320"><path fill="#0099ff" fill-opacity="1" d="M0,96L16,85.3C32,75,64,53,96,74.7C128,96,160,160,192,160C224,160,256,96,288,96C320,96,352,160,384,181.3C416,203,448,181,480,160C512,139,544,117,576,101.3C608,85,640,75,672,69.3C704,64,736,64,768,80C800,96,832,128,864,149.3C896,171,928,181,960,160C992,139,1024,85,1056,80C1088,75,1120,117,1152,133.3C1184,149,1216,139,1248,117.3C1280,96,1312,64,1344,64C1376,64,1408,96,1424,112L1440,128L1440,0L1424,0C1408,0,1376,0,1344,0C1312,0,1280,0,1248,0C1216,0,1184,0,1152,0C1120,0,1088,0,1056,0C1024,0,992,0,960,0C928,0,896,0,864,0C832,0,800,0,768,0C736,0,704,0,672,0C640,0,608,0,576,0C544,0,512,0,480,0C448,0,416,0,384,0C352,0,320,0,288,0C256,0,224,0,192,0C160,0,128,0,96,0C64,0,32,0,16,0L0,0Z"></path></svg>